PathFileType	3	(X/Y/Z)	D:\minhoCalibration\240510\subject1_KPNP\preferred\preferred14.trc
DataRate	CameraRate	NumFrames	NumMarkers	Units	OrigDataRate	OrigDataStartFrame	OrigNumFrames
200.0	200.0	21	10	mm	200.0	465	208	
Frame#	Time	Left_Ankle_Outer1			Left_Ankle_Inner1			Left_Knee_Outer1			Left_Knee_Inner1			Left_Wrist1			Right_Wrist1			Right_Knee_Inner1			Right_Knee_Outer1			Right_Ankle_Inner1			Right_Ankle_Outer1			
		X1	Y1	Z1	X2	Y2	Z2	X3	Y3	Z3	X4	Y4	Z4	X5	Y5	Z5	X6	Y6	Z6	X7	Y7	Z7	X8	Y8	Z8	X9	Y9	Z9	X10	Y10	Z10	
465	2.315	-521.62805	134.64316	-558.96967	-558.19745	144.8093	-514.53625	-355.08713	550.49017	-459.61688	-450.09082	535.13934	-409.20175	-389.18646	974.92627	-680.94067	-593.01593	1189.7012	-461.49567	-290.35779	1017.3782	-151.88425	-361.46542	1101.8336	-132.05093	-346.00876	928.65045	289.39459	-341.78024	1038.2916	326.12769
466	2.32	-522.1571	135.31914	-557.88019	-558.55634	145.21214	-513.46692	-355.76007	551.32349	-458.18118	-450.80228	535.36761	-408.45126	-387.29111	976.63727	-677.45886	-596.95197	1187.9266	-460.03815	-297.30481	1010.8228	-148.18439	-366.02972	1095.5256	-126.6424	-344.73502	912.02911	289.48837	-344.29269	1021.5492	328.53094
467	2.325	-522.94336	135.74902	-556.68103	-559.03754	145.62665	-512.57782	-356.4628	551.98633	-457.19934	-451.32581	535.68781	-407.99469	-385.13947	978.94946	-674.02838	-600.95868	1185.7872	-458.80161	-303.87152	1004.025	-145.36792	-369.47394	1088.8682	-121.66452	-343.14346	895.56897	288.81128	-346.3898	1004.3212	330.43707
468	2.33	-523.49146	136.36494	-556.36304	-559.58789	146.05531	-511.69717	-357.14447	552.49878	-456.73038	-452.05682	536.35352	-406.91196	-383.71811	980.62256	-670.60541	-604.97864	1183.3832	-457.60608	-309.09976	997.70703	-143.45285	-372.85666	1081.9844	-117.0881	-340.74515	878.20996	287.0697	-348.02533	986.7995	331.64438
469	2.335	-524.17145	136.66823	-555.92413	-560.09467	146.30573	-511.16324	-357.99966	552.94775	-456.53052	-452.06506	536.21411	-407.78323	-381.91287	982.77655	-667.38751	-608.97015	1180.7701	-456.45731	-316.15387	991.41913	-140.69011	-377.2869	1075.1559	-112.97065	-339.495	862.13074	285.36896	-349.97342	969.16821	332.74396
470	2.34	-524.68921	136.92787	-555.67157	-560.53503	146.50378	-510.87659	-358.70944	553.29456	-456.6456	-452.6528	536.41498	-407.7753	-380.08957	984.95508	-664.18225	-612.92639	1178.0511	-455.24194	-322.61319	985.16345	-138.83037	-383.49164	1068.3923	-109.34325	-338.45309	844.94556	282.16489	-352.55795	950.96875	332.98157
471	2.345	-525.08966	137.05984	-555.52399	-560.91058	146.50642	-510.75739	-359.48083	553.51062	-456.94241	-453.57776	536.7381	-407.48831	-378.55588	987.02124	-660.79156	-616.62262	1175.2773	-454.24039	-328.95248	979.10162	-137.38344	-391.08139	1061.3899	-106.31821	-338.14185	828.44995	278.90042	-355.79581	932.7597	332.60477
472	2.35	-525.62109	136.76114	-555.25354	-561.28125	146.38109	-510.81342	-360.38559	553.57861	-457.33704	-454.39691	536.94409	-407.85666	-376.57397	989.17926	-657.88849	-620.16425	1172.0674	-453.53531	-335.12204	973.25684	-136.25043	-399.57581	1054.1565	-103.64816	-338.30502	811.76099	275.00754	-360.41556	914.13	331.61899
473	2.355	-525.83588	136.53787	-555.53302	-561.44208	146.20306	-511.03503	-361.22241	553.72003	-457.85223	-455.05774	536.6908	-409.40878	-374.71545	991.02783	-655.26001	-624.08942	1169.1086	-452.73022	-340.77042	967.75305	-135.53191	-407.85931	1046.505	-101.56447	-339.71503	794.27942	270.80371	-365.48206	894.85126	329.78885
474	2.36	-525.80328	136.38744	-556.23932	-561.58221	145.87206	-511.45142	-362.10385	553.7168	-458.44193	-456.64175	536.94293	-409.45245	-372.89746	992.85736	-652.70361	-627.98523	1165.8818	-452.01636	-345.9231	962.65674	-135.2187	-416.67508	1038.5316	-99.370232	-340.91483	777.54407	266.22171	-371.57022	875.3399	327.92682
475	2.365	-525.92938	135.84682	-556.62335	-561.68414	145.39452	-512.24207	-363.04538	553.63379	-459.05099	-458.13403	537.34344	-409.98495	-371.15408	994.42493	-650.19958	-632.13574	1162.5129	-451.18509	-350.30902	958.22003	-135.43761	-425.20135	1029.9574	-97.565628	-342.65619	760.80829	259.39774	-378.17242	855.03217	325.29132
476	2.37	-525.63147	135.30699	-557.57513	-561.79968	145.00317	-512.96436	-364.56433	553.21021	-459.42715	-459.38791	536.68793	-411.68161	-369.54199	995.8009	-647.71301	-635.54492	1158.5925	-451.06387	-353.59583	954.50427	-136.10141	-433.52472	1020.9719	-95.992882	-346.09048	743.66266	252.43706	-385.35211	834.2063	321.9068
477	2.375	-525.46844	134.37408	-558.1637	-561.6358	144.20625	-514.05719	-365.44785	553.05725	-460.09845	-460.38425	536.50842	-413.02661	-368.06476	996.88733	-645.28455	-639.17871	1154.714	-450.49493	-356.96475	951.16516	-136.55914	-441.3233	1011.2108	-95.033356	-349.38791	726.24213	244.71835	-392.79007	812.72552	317.51483
478	2.38	-524.87909	133.69911	-559.42651	-561.38379	143.466	-515.50891	-366.47205	552.70526	-460.72031	-462.1329	535.65277	-414.45099	-366.77786	997.74078	-642.87439	-641.86987	1150.6342	-450.66943	-360.10437	948.01733	-136.69637	-448.68527	1001.2314	-94.490356	-353.91046	708.39911	238.54155	-401.45154	790.66162	312.67389
479	2.385	-524.34613	132.75932	-560.48798	-561.11792	142.42906	-516.84424	-367.33679	552.32135	-461.37119	-463.82526	534.97272	-415.87714	-365.57956	998.48059	-640.56476	-644.63171	1146.715	-450.65677	-363.21158	944.63788	-136.48427	-455.66431	991.3714	-94.32032	-358.12411	690.69855	229.71388	-410.45911	768.08295	306.8562
480	2.39	-524.10077	131.49838	-561.20001	-560.89868	141.34503	-518.30084	-368.24881	551.77679	-462.10211	-465.16629	534.17725	-417.62167	-364.47479	999.01227	-638.31671	-646.94037	1142.9565	-450.8176	-366.71991	940.44238	-135.92868	-462.31189	981.57233	-94.66597	-368.83197	670.75677	226.16879	-419.94086	745.33356	300.21387
481	2.395	-523.3739	130.68263	-562.59338	-560.84326	140.29234	-519.75732	-369.10355	551.21997	-462.81702	-466.21011	533.40942	-419.54794	-363.6582	999.40283	-636.1756	-648.6449	1139.1506	-451.72647	-370.2926	934.99811	-135.50281	-468.53387	971.67542	-95.335014	-376.55856	651.62769	217.4913	-429.47287	721.5636	292.49356
482	2.4	-523.00586	129.47531	-563.7298	-560.75696	139.15796	-521.16388	-369.9093	550.55933	-463.61542	-467.88492	532.35895	-421.30399	-362.8775	999.69788	-634.16949	-650.33929	1135.8652	-452.82242	-373.7341	928.14764	-135.56949	-474.29929	961.70898	-96.21505	-384.87817	633.06659	208.14116	-439.8085	698.28455	283.95886
483	2.405	-522.72772	128.14236	-564.87402	-560.70868	138.04352	-522.75891	-370.64029	549.77466	-464.55447	-469.25693	531.44427	-423.04837	-362.25861	999.86798	-632.38025	-651.83356	1132.5664	-454.17584	-377.15192	919.99878	-136.36128	-479.44211	951.677	-97.194801	-390.37524	615.18219	193.79922	-450.41312	675.32855	274.57031
484	2.41	-522.58783	126.91772	-565.98505	-560.80316	136.56238	-523.99908	-371.23404	548.93268	-465.61954	-471.02383	530.40656	-424.50067	-361.78574	1000.0014	-630.71906	-653.49719	1129.4547	-455.42554	-380.47717	910.96667	-137.75999	-483.87082	941.70581	-98.221779	-399.6821	596.22101	182.37721	-461.05099	652.63525	264.06033
485	2.415	-522.7417	125.35184	-566.65784	-560.93835	135.25836	-525.41742	-371.83502	548.11829	-466.66324	-471.05057	528.78204	-427.48837	-361.42712	999.94659	-629.13226	-655.24835	1126.8523	-456.13531	-383.61838	901.49817	-139.65965	-487.53345	931.80548	-99.472069	-410.7756	576.67029	171.15825	-471.664	630.27661	252.42583
